{
  "accessors": [
    {
      "bufferView": 2,
      "componentType": 5126,
      "count": 893,
      "max": [
        24.119792938232422,
        18.387418746948242,
        64.466049194335938
      ],
      "min": [
        -27.172210693359375,
        -13.143905639648438,
        -1.6390419006347656
      ],
      "type": "VEC3"
    },
    {
      "bufferView": 2,
      "byteOffset": 10716,
      "componentType": 5126,
      "count": 893,
      "max": [
        0.99170470237731934,
        1,
        0.99572515487670898
      ],
      "min": [
        -0.99159520864486694,
        -1,
        -1
      ],
      "type": "VEC3"
    },
    {
      "bufferView": 3,
      "componentType": 5126,
      "count": 893,
      "max": [
        0.9990839958190918,
        0.22516463696956635,
        0.99995702505111694,
        1
      ],
      "min": [
        -0.99908381700515747,
        -1,
        -0.99797618389129639,
        -1
      ],
      "type": "VEC4"
    },
    {
      "bufferView": 1,
      "componentType": 5126,
      "count": 893,
      "max": [
        0.66666668653488159,
        1
      ],
      "min": [
        -0.00024565091007389128,
        -1.1920928955078125e-07
      ],
      "type": "VEC2"
    },
    {
      "bufferView": 0,
      "componentType": 5125,
      "count": 3414,
      "max": [
        892
      ],
      "min": [
        0
      ],
      "type": "SCALAR"
    },
    {
      "bufferView": 2,
      "byteOffset": 21432,
      "componentType": 5126,
      "count": 1583,
      "max": [
        41.254745483398438,
        51.172630310058594,
        72.656295776367188
      ],
      "min": [
        -44.151603698730469,
        1.7810559272766113,
        -9.6352005004882812
      ],
      "type": "VEC3"
    },
    {
      "bufferView": 2,
      "byteOffset": 40428,
      "componentType": 5126,
      "count": 1583,
      "max": [
        0.99999904632568359,
        0.99998307228088379,
        0.99987763166427612
      ],
      "min": [
        -0.99999904632568359,
        -0.99930530786514282,
        -0.99977290630340576
      ],
      "type": "VEC3"
    },
    {
      "bufferView": 3,
      "byteOffset": 14288,
      "componentType": 5126,
      "count": 1583,
      "max": [
        0.99856841564178467,
        0.99992144107818604,
        0.99118059873580933,
        1
      ],
      "min": [
        -0.99856865406036377,
        -0.9849204421043396,
        -0.9999966025352478,
        -1
      ],
      "type": "VEC4"
    },
    {
      "bufferView": 1,
      "byteOffset": 7144,
      "componentType": 5126,
      "count": 1583,
      "max": [
        52.155197143554688,
        77.562507629394531
      ],
      "min": [
        -52.510009765625,
        -62.359886169433594
      ],
      "type": "VEC2"
    },
    {
      "bufferView": 0,
      "byteOffset": 13656,
      "componentType": 5125,
      "count": 8640,
      "max": [
        1582
      ],
      "min": [
        0
      ],
      "type": "SCALAR"
    },
    {
      "bufferView": 2,
      "byteOffset": 59424,
      "componentType": 5126,
      "count": 1575,
      "max": [
        27.75251579284668,
        33.540534973144531,
        66.132965087890625
      ],
      "min": [
        -30.804935455322266,
        9.6480817794799805,
        -2.8521990776062012
      ],
      "type": "VEC3"
    },
    {
      "bufferView": 2,
      "byteOffset": 78324,
      "componentType": 5126,
      "count": 1575,
      "max": [
        0.98930925130844116,
        0.99976837635040283,
        0.99836635589599609
      ],
      "min": [
        -0.98930919170379639,
        -0.99979448318481445,
        -0.99708503484725952
      ],
      "type": "VEC3"
    },
    {
      "bufferView": 3,
      "byteOffset": 39616,
      "componentType": 5126,
      "count": 1575,
      "max": [
        0.99999809265136719,
        0.99836641550064087,
        0.99976837635040283,
        1
      ],
      "min": [
        -0.99999809265136719,
        -0.99859112501144409,
        -0.99860227108001709,
        -1
      ],
      "type": "VEC4"
    },
    {
      "bufferView": 1,
      "byteOffset": 19808,
      "componentType": 5126,
      "count": 1575,
      "max": [
        0.43667751550674438,
        1.0000622272491455
      ],
      "min": [
        -0.016461547464132309,
        -2.5904584617819637e-05
      ],
      "type": "VEC2"
    },
    {
      "bufferView": 0,
      "byteOffset": 48216,
      "componentType": 5125,
      "count": 6246,
      "max": [
        1574
      ],
      "min": [
        0
      ],
      "type": "SCALAR"
    },
    {
      "bufferView": 2,
      "byteOffset": 97224,
      "componentType": 5126,
      "count": 775,
      "max": [
        27.247945785522461,
        32.107223510742188,
        61.583152770996094
      ],
      "min": [
        -30.300357818603516,
        9.6606245040893555,
        10.899839401245117
      ],
      "type": "VEC3"
    },
    {
      "bufferView": 2,
      "byteOffset": 106524,
      "componentType": 5126,
      "count": 775,
      "max": [
        0.98343473672866821,
        0.98393243551254272,
        0.9581494927406311
      ],
      "min": [
        -0.98343479633331299,
        -0.051832623779773712,
        -0.51363635063171387
      ],
      "type": "VEC3"
    },
    {
      "bufferView": 3,
      "byteOffset": 64816,
      "componentType": 5126,
      "count": 775,
      "max": [
        0.99998724460601807,
        0.61963695287704468,
        0.9839324951171875,
        1
      ],
      "min": [
        -0.99998718500137329,
        -0.99028003215789795,
        -0.92394781112670898,
        -1
      ],
      "type": "VEC4"
    },
    {
      "bufferView": 1,
      "byteOffset": 32408,
      "componentType": 5126,
      "count": 775,
      "max": [
        0.24999998509883881,
        0.70597666501998901
      ],
      "min": [
        -0.0033455155789852142,
        0.16262848675251007
      ],
      "type": "VEC2"
    },
    {
      "bufferView": 0,
      "byteOffset": 73200,
      "componentType": 5125,
      "count": 3000,
      "max": [
        774
      ],
      "min": [
        0
      ],
      "type": "SCALAR"
    },
    {
      "bufferView": 2,
      "byteOffset": 115824,
      "componentType": 5126,
      "count": 2375,
      "max": [
        23.610607147216797,
        19.189096450805664,
        65.643745422363281
      ],
      "min": [
        -26.663021087646484,
        -13.35390567779541,
        1.6136988401412964
      ],
      "type": "VEC3"
    },
    {
      "bufferView": 2,
      "byteOffset": 144324,
      "componentType": 5126,
      "count": 2375,
      "max": [
        0.99999368190765381,
        0.9998939037322998,
        1
      ],
      "min": [
        -0.99999362230300903,
        -0.99999904632568359,
        -0.99995875358581543
      ],
      "type": "VEC3"
    },
    {
      "bufferView": 3,
      "byteOffset": 77216,
      "componentType": 5126,
      "count": 2375,
      "max": [
        0.9997173547744751,
        0.22195862233638763,
        0.99993473291397095,
        1
      ],
      "min": [
        -0.99813783168792725,
        -1,
        -0.99999892711639404,
        -1
      ],
      "type": "VEC4"
    },
    {
      "bufferView": 1,
      "byteOffset": 38608,
      "componentType": 5126,
      "count": 2375,
      "max": [
        0.50000005960464478,
        0.81328129768371582
      ],
      "min": [
        0,
        -1.1920928955078125e-07
      ],
      "type": "VEC2"
    },
    {
      "bufferView": 0,
      "byteOffset": 85200,
      "componentType": 5125,
      "count": 9294,
      "max": [
        2374
      ],
      "min": [
        0
      ],
      "type": "SCALAR"
    },
    {
      "bufferView": 2,
      "byteOffset": 172824,
      "componentType": 5126,
      "count": 189,
      "max": [
        27.182119369506836,
        49.1253662109375,
        69.914398193359375
      ],
      "min": [
        -26.459285736083984,
        13.912568092346191,
        -3.0086345672607422
      ],
      "type": "VEC3"
    },
    {
      "bufferView": 2,
      "byteOffset": 175092,
      "componentType": 5126,
      "count": 189,
      "max": [
        0.98421001434326172,
        0.99994605779647827,
        0.91550749540328979
      ],
      "min": [
        -0.98391616344451904,
        -0.68475830554962158,
        -0.92004895210266113
      ],
      "type": "VEC3"
    },
    {
      "bufferView": 3,
      "byteOffset": 115216,
      "componentType": 5126,
      "count": 189,
      "max": [
        0.99999850988388062,
        0.89284682273864746,
        0.99999433755874634,
        1
      ],
      "min": [
        -0.99999850988388062,
        -0.89410954713821411,
        -0.99999433755874634,
        -1
      ],
      "type": "VEC4"
    },
    {
      "bufferView": 1,
      "byteOffset": 57608,
      "componentType": 5126,
      "count": 189,
      "max": [
        1.0416666269302368,
        1.0000002384185791
      ],
      "min": [
        0.041666656732559204,
        0
      ],
      "type": "VEC2"
    },
    {
      "bufferView": 0,
      "byteOffset": 122376,
      "componentType": 5125,
      "count": 504,
      "max": [
        188
      ],
      "min": [
        0
      ],
      "type": "SCALAR"
    }
  ],
  "asset": {
    "extras": {
      "author": "Anthony Yanez (https://sketchfab.com/paulyanez)",
      "license": "CC-BY-4.0 (http://creativecommons.org/licenses/by/4.0/)",
      "source": "https://sketchfab.com/models/6d376718e18d4f89b45ad7b2f32e4411",
      "title": "Blue Shell (Mario Kart)"
    },
    "generator": "Sketchfab-3.46.1",
    "version": "2.0"
  },
  "bufferViews": [
    {
      "buffer": 0,
      "byteLength": 124392,
      "byteOffset": 0,
      "name": "floatBufferViews",
      "target": 34963
    },
    {
      "buffer": 0,
      "byteLength": 59120,
      "byteOffset": 124392,
      "byteStride": 8,
      "name": "floatBufferViews",
      "target": 34962
    },
    {
      "buffer": 0,
      "byteLength": 177360,
      "byteOffset": 183512,
      "byteStride": 12,
      "name": "floatBufferViews",
      "target": 34962
    },
    {
      "buffer": 0,
      "byteLength": 118240,
      "byteOffset": 360872,
      "byteStride": 16,
      "name": "floatBufferViews",
      "target": 34962
    }
  ],
  "buffers": [
    {
      "byteLength": 479112,
      "uri": "scene.bin"
    }
  ],
  "materials": [
    {
      "doubleSided": true,
      "emissiveFactor": [
        0,
        0,
        0
      ],
      "name": "07_-_Default",
      "pbrMetallicRoughness": {
        "baseColorFactor": [
          0,
          0,
          0,
          1
        ],
        "metallicFactor": 1,
        "roughnessFactor": 0.89297135959999996
      }
    },
    {
      "doubleSided": true,
      "emissiveFactor": [
        0,
        0,
        0
      ],
      "name": "08_-_Default",
      "pbrMetallicRoughness": {
        "baseColorFactor": [
          1,
          1,
          1,
          1
        ],
        "metallicFactor": 0.46512957319999998,
        "roughnessFactor": 0.66291920729999998
      }
    },
    {
      "doubleSided": true,
      "emissiveFactor": [
        0,
        0,
        0
      ],
      "name": "03_-_Default",
      "pbrMetallicRoughness": {
        "baseColorFactor": [
          0,
          0.070588200000000004,
          1,
          1
        ],
        "metallicFactor": 0.66634908540000004,
        "roughnessFactor": 0.19950457320000003
      }
    },
    {
      "doubleSided": true,
      "emissiveFactor": [
        0,
        0,
        0
      ],
      "name": "09_-_Default",
      "pbrMetallicRoughness": {
        "baseColorFactor": [
          0.0078431400000000002,
          0,
          0.12548999999999999,
          1
        ],
        "metallicFactor": 0.78830030490000003,
        "roughnessFactor": 0.89297135959999996
      }
    },
    {
      "doubleSided": true,
      "emissiveFactor": [
        0,
        0,
        0
      ],
      "name": "02_-_Default",
      "pbrMetallicRoughness": {
        "baseColorFactor": [
          0.80392200000000003,
          0.73725499999999999,
          0.52549000000000001,
          1
        ],
        "metallicFactor": 0.45903201220000001,
        "roughnessFactor": 0.44340701220000001
      }
    },
    {
      "doubleSided": true,
      "emissiveFactor": [
        0,
        0,
        0
      ],
      "name": "White",
      "pbrMetallicRoughness": {
        "baseColorFactor": [
          1,
          1,
          1,
          1
        ],
        "metallicFactor": 0.25171493900000003,
        "roughnessFactor": 0.89297135959999996
      }
    }
  ],
  "meshes": [
    {
      "name": "Shell_07 - Default_0",
      "primitives": [
        {
          "attributes": {
            "NORMAL": 1,
            "POSITION": 0,
            "TANGENT": 2,
            "TEXCOORD_0": 3
          },
          "indices": 4,
          "material": 0,
          "mode": 4
        }
      ]
    },
    {
      "name": "Shell_08 - Default_0",
      "primitives": [
        {
          "attributes": {
            "NORMAL": 6,
            "POSITION": 5,
            "TANGENT": 7,
            "TEXCOORD_0": 8
          },
          "indices": 9,
          "material": 1,
          "mode": 4
        }
      ]
    },
    {
      "name": "Shell_03 - Default_0",
      "primitives": [
        {
          "attributes": {
            "NORMAL": 11,
            "POSITION": 10,
            "TANGENT": 12,
            "TEXCOORD_0": 13
          },
          "indices": 14,
          "material": 2,
          "mode": 4
        }
      ]
    },
    {
      "name": "Shell_09 - Default_0",
      "primitives": [
        {
          "attributes": {
            "NORMAL": 16,
            "POSITION": 15,
            "TANGENT": 17,
            "TEXCOORD_0": 18
          },
          "indices": 19,
          "material": 3,
          "mode": 4
        }
      ]
    },
    {
      "name": "Shell_02 - Default_0",
      "primitives": [
        {
          "attributes": {
            "NORMAL": 21,
            "POSITION": 20,
            "TANGENT": 22,
            "TEXCOORD_0": 23
          },
          "indices": 24,
          "material": 4,
          "mode": 4
        }
      ]
    },
    {
      "name": "Shell_White_0",
      "primitives": [
        {
          "attributes": {
            "NORMAL": 26,
            "POSITION": 25,
            "TANGENT": 27,
            "TEXCOORD_0": 28
          },
          "indices": 29,
          "material": 5,
          "mode": 4
        }
      ]
    }
  ],
  "nodes": [
    {
      "children": [
        1
      ],
      "name": "RootNode (gltf orientation matrix)",
      "rotation": [
        -0.70710678118654746,
        -0,
        -0,
        0.70710678118654757
      ]
    },
    {
      "children": [
        2
      ],
      "name": "RootNode (model correction matrix)"
    },
    {
      "children": [
        3
      ],
      "matrix": [
        1,
        0,
        0,
        0,
        0,
        0,
        1,
        0,
        0,
        -1,
        0,
        0,
        0,
        0,
        0,
        1
      ],
      "name": "0358e74f2f31415c852425c1edecb3b0.fbx"
    },
    {
      "children": [
        4
      ],
      "name": "RootNode"
    },
    {
      "children": [
        5
      ],
      "matrix": [
        4.3141344052274803e-07,
        3.5045944041679533e-23,
        2.6479966640472061,
        0,
        -5.6668586293118628e-07,
        3.478292942047073,
        9.2324851140975018e-14,
        0,
        -2.6779952049254661,
        -4.3630080873397266e-07,
        4.3630082346649676e-07,
        0,
        -1.5659487247467041,
        66.330459594726562,
        -0.11949944496154785,
        1
      ],
      "name": "Shell"
    },
    {
      "children": [
        6,
        7,
        8,
        9,
        10,
        11
      ],
      "matrix": [
        1,
        0,
        -0,
        0,
        0,
        1,
        0,
        0,
        0,
        0,
        1,
        0,
        1.5570380687713623,
        -5.5598430633544922,
        -30.701807022094727,
        1
      ],
      "name": ""
    },
    {
      "mesh": 0,
      "name": "Shell_07 - Default_0"
    },
    {
      "mesh": 1,
      "name": "Shell_08 - Default_0"
    },
    {
      "mesh": 2,
      "name": "Shell_03 - Default_0"
    },
    {
      "mesh": 3,
      "name": "Shell_09 - Default_0"
    },
    {
      "mesh": 4,
      "name": "Shell_02 - Default_0"
    },
    {
      "mesh": 5,
      "name": "Shell_White_0"
    }
  ],
  "scene": 0,
  "scenes": [
    {
      "name": "OSG_Scene",
      "nodes": [
        0
      ]
    }
  ]
}

